<?xml version="1.0" encoding="UTF-8"?>
<!DOCTYPE svg  PUBLIC '-//W3C//DTD SVG 1.1//EN'  'http://www.w3.org/Graphics/SVG/1.1/DTD/svg11.dtd'>
<svg enable-background="new 0 0 53.8 55.1" version="1.1" viewBox="0 0 53.8 55.1" xml:space="preserve" xmlns="http://www.w3.org/2000/svg" xmlns:xlink="http://www.w3.org/1999/xlink">
<symbol id="ao" viewBox="-0.044 -2.203 2.005 2.203">
			<linearGradient id="bk" x1="44.894" x2="61.445" y1="48.085" y2="48.085" gradientTransform="matrix(1 .006 -.006 1 -49.179 -49.489)" gradientUnits="userSpaceOnUse">
			<stop stop-color="#87CDFF" offset="0"/>
			<stop stop-color="#6ED6F5" offset="1"/>
		</linearGradient>
		<path d="m0.5 0c0-0.267 0.033-0.5 0.1-0.7 0.066-0.2 0.233-0.367 0.5-0.5 0.333-0.133 0.583-0.3 0.75-0.5 0.267-0.333 0.05-0.5-0.65-0.5-0.667-0.033-1.067 0.2-1.2 0.7-0.133 0.6 0.033 1.1 0.5 1.5z" clip-rule="evenodd" fill="url(#bk)" fill-rule="evenodd"/>
</symbol>
<symbol id="ap" viewBox="-0.026 -3.095 2.664 3.095">
		<linearGradient id="ag" x1="-12.25" x2="3.45" y1="-1.5474" y2="-1.5474" gradientUnits="userSpaceOnUse">
			<stop stop-color="#87CDFF" offset="0"/>
			<stop stop-color="#6ED6F5" offset="1"/>
		</linearGradient>
		<path d="m2.1 0c0.267-0.4 0.417-0.667 0.45-0.8 0.133-0.367 0.117-0.75-0.05-1.15-0.267-0.5-0.617-0.85-1.05-1.05-0.5-0.2-0.934-0.083-1.3 0.35-0.4 0.433-0.117 0.867 0.85 1.3 0.9 0.367 1.267 0.817 1.1 1.35z" clip-rule="evenodd" fill="url(#ag)" fill-rule="evenodd"/>
</symbol>
<symbol id="aq" viewBox="0.35 -11.752 31.3 11.502">
		<linearGradient id="ah" x1=".0127" x2="31.988" y1="-6.001" y2="-6.001" gradientUnits="userSpaceOnUse">
			<stop stop-color="#A1DAFF" offset="0"/>
			<stop stop-color="#537F9C" offset="1"/>
		</linearGradient>
		<path d="m31.65-0.25c-4.841-3.626-8.125-5.993-9.85-7.1-2.267-1.533-3.716-2.75-4.35-3.65-0.467-0.633-0.95-0.867-1.45-0.7-0.5-0.167-0.967 0.067-1.4 0.7-0.6 0.867-2.067 2.083-4.4 3.65-1.725 1.107-5.009 3.474-9.85 7.1 1.762-1.248 3.112-1.981 4.05-2.2 1.233-0.233 5.1-0.633 11.6-1.2 6.5 0.566 10.367 0.967 11.6 1.2 0.938 0.219 2.288 0.952 4.05 2.2z" clip-rule="evenodd" fill="url(#ah)" fill-rule="evenodd"/>
</symbol>
<symbol id="ar" viewBox="0.051 -6.059 8.549 6.059">
			<linearGradient id="ai" x1="5767.8" x2="5774.2" y1="-19454" y2="-19454" gradientTransform="matrix(-.5449 -.8385 .8385 -.5449 19461 -5764.7)" gradientUnits="userSpaceOnUse">
			<stop stop-color="#fff" offset="0"/>
			<stop offset="1"/>
		</linearGradient>
		<path d="m6.3-0.25l2.3 0.25-0.5-0.5c-0.4-0.4-1.3-1.133-2.7-2.2-1.7-1.3-3.05-2.217-4.05-2.75-1.033-0.533-1.45-0.717-1.25-0.55 0.033 0.033 0.7 0.55 2 1.55 1.433 1.133 2.833 2.533 4.2 4.2z" clip-rule="evenodd" fill="url(#ai)" fill-rule="evenodd"/>
</symbol>
<symbol id="as" viewBox="0 -7.316 11.4 7.316">
		<linearGradient id="aj" x1="2.0376" x2="9.0626" y1="-3.6582" y2="-3.6582" gradientUnits="userSpaceOnUse">
			<stop stop-color="#fff" offset="0"/>
			<stop offset="1"/>
		</linearGradient>
		<path d="m0 0l11.4-0.95-0.05-5.05c0-1.233-0.617-1.6-1.85-1.1l-1.85 1.1c-0.333 0.3-1.433 1.117-3.3 2.45-1.867 1.367-3.317 2.55-4.35 3.55z" clip-rule="evenodd" fill="url(#aj)" fill-rule="evenodd"/>
</symbol>
<symbol id="at" viewBox="0 -6.6 31.45 6.6">
		<linearGradient id="ak" x2="31.45" y1="-3.2998" y2="-3.2998" gradientUnits="userSpaceOnUse">
			<stop stop-color="#C2E7FF" offset="0"/>
			<stop stop-color="#88ABC2" offset="1"/>
		</linearGradient>
		<path d="m31.45-3.3c0-0.934-1.534-1.717-4.6-2.35-3.067-0.633-6.783-0.95-11.15-0.95-4.333 0-8.034 0.317-11.1 0.95-3.067 0.633-4.6 1.417-4.6 2.35s1.533 1.716 4.6 2.35c3.067 0.633 6.767 0.95 11.1 0.95 4.367 0 8.083-0.317 11.15-0.95s4.6-1.417 4.6-2.35z" clip-rule="evenodd" fill="url(#ak)" fill-rule="evenodd"/>
</symbol>
<symbol id="au" viewBox="0 -2.45 2.253 2.512">
		<path d="m1.25-1.45c0.367 0.567 0.567 1.017 0.6 1.35 0.2 0.3 0.333 0.184 0.4-0.35 0.033-0.5-0.2-0.95-0.7-1.35-0.567-0.433-1.083-0.65-1.55-0.65 0.733 0.467 1.15 0.8 1.25 1z" clip-rule="evenodd" fill="#CEF2F2" fill-rule="evenodd"/>
</symbol>
<symbol id="av" viewBox="-0.033 -0.506 0.68 0.506">
		<path d="m0.4-0.05c0.267-0.133 0.317-0.267 0.15-0.4-0.133-0.1-0.283-0.066-0.45 0.1-0.133 0.133-0.167 0.233-0.1 0.3 0.1 0.067 0.233 0.067 0.4 0z" clip-rule="evenodd" fill="#CEF2F2" fill-rule="evenodd"/>
</symbol>
<symbol id="aw" viewBox="-0.026 -2.564 1.819 2.529">
		<path d="m0.5-0.05c0.2 0.066 0.333-0.1 0.4-0.5 0.133-0.633 0.367-1.133 0.7-1.5 0.3-0.4 0.25-0.567-0.15-0.5s-0.75 0.317-1.05 0.75c-0.6 0.8-0.567 1.383 0.1 1.75z" clip-rule="evenodd" fill="#CEF2F2" fill-rule="evenodd"/>
</symbol>
<symbol id="ax" viewBox="0 -14.8 2.85 14.8">
		<linearGradient id="al" x1=".0498" x2="2.8498" y1="-7.3999" y2="-7.3999" gradientUnits="userSpaceOnUse">
			<stop stop-color="#5A9BC9" offset="0"/>
			<stop stop-color="#EDF8FF" offset=".4588"/>
			<stop stop-color="#61BEFF" offset=".9765"/>
		</linearGradient>
		<path d="m1.45-0.55l1.4 0.55c-0.4-0.333-0.6-1.133-0.6-2.4-0.033-1.767-0.033-5.783 0-12.05-0.1-0.2-0.333-0.316-0.7-0.35h-0.25c-0.367 0.033-0.6 0.15-0.7 0.35 0.033 6.267 0.033 10.283 0 12.05 0 1.267-0.2 2.067-0.6 2.4l1.45-0.55z" clip-rule="evenodd" fill="url(#al)" fill-rule="evenodd"/>
</symbol>
<symbol id="ay" viewBox="0.009 -1.9 3.213 1.9">
		<linearGradient id="am" x2="3.2" y1="-.9502" y2="-.9502" gradientUnits="userSpaceOnUse">
			<stop stop-color="#ABC5D9" offset="0"/>
			<stop stop-color="#EDF8FF" offset=".4588"/>
			<stop stop-color="#B8D1E3" offset=".9765"/>
		</linearGradient>
		<path d="m1.7-1.9h-0.2c-0.733 0-1.2 0.183-1.4 0.55-0.233 0.4-0.017 0.85 0.65 1.35l0.85-0.3 0.9 0.3c0.633-0.467 0.85-0.917 0.65-1.35-0.2-0.367-0.683-0.55-1.45-0.55z" clip-rule="evenodd" fill="url(#am)" fill-rule="evenodd"/>
</symbol>
<symbol id="az" viewBox="0 -6.15 14.6 6.15">
		<path d="m12.55-0.4c1.367-0.7 2.05-1.483 2.05-2.35 0-0.933-0.717-1.733-2.15-2.4-1.4-0.667-3.117-1-5.15-1s-3.75 0.333-5.15 1c-1.433 0.667-2.15 1.467-2.15 2.4 0 1.133 1.017 2.05 3.05 2.75-0.733-0.433-1.217-0.8-1.45-1.1-0.333-0.433-0.367-0.933-0.1-1.5 0.533-1 1.75-1.717 3.65-2.15 1.867-0.433 3.717-0.433 5.55 0 1.4 0.3 2.25 0.917 2.55 1.85 0.267 0.867 0.033 1.7-0.7 2.5z" clip-rule="evenodd" fill="#162C33" fill-rule="evenodd"/>
</symbol>
<symbol id="ba" viewBox="0 -6.75 14.6 6.75">
			<radialGradient id="an" cx="4.2515" cy="-16322" r="6.175" gradientTransform="matrix(8.0972e-5 -1 -1.3178 8.0972e-5 -21502 3.8232)" gradientUnits="userSpaceOnUse">
			<stop stop-color="#fff" offset="0"/>
			<stop stop-color="#83CFE6" offset=".9882"/>
		</radialGradient>
		<path d="m14.6-3.35c0-0.933-0.717-1.733-2.15-2.4-1.4-0.667-3.117-1-5.15-1s-3.75 0.333-5.15 1c-1.433 0.667-2.15 1.467-2.15 2.4s0.717 1.717 2.15 2.35c1.4 0.667 3.117 1 5.15 1 2.034 0 3.75-0.333 5.15-1 1.433-0.633 2.15-1.417 2.15-2.35z" clip-rule="evenodd" fill="url(#an)" fill-rule="evenodd"/>
</symbol>
<symbol id="bb" viewBox="0 -3.85 14.6 3.85">
		<path d="m12.2-2.3c1.4 0.566 2.183 1.283 2.35 2.15l0.05-0.3c0-0.933-0.717-1.733-2.15-2.4-1.434-0.667-3.15-1-5.15-1s-3.716 0.333-5.15 1c-1.433 0.667-2.15 1.467-2.15 2.4v0.45c0.1-0.9 0.85-1.667 2.25-2.3 1.433-0.6 3.117-0.9 5.05-0.9 1.9 0 3.533 0.3 4.9 0.9z" clip-rule="evenodd" fill="#004E69" fill-rule="evenodd"/>
</symbol>
<symbol id="bc" viewBox="0 -12.5 0.2 12.5">
		<path d="m0.2-6.25c0-4.167-0.034-6.25-0.1-6.25-0.067 0-0.1 2.083-0.1 6.25s0.033 6.25 0.1 6.25 0.1-2.083 0.1-6.25z" clip-rule="evenodd" fill="#DFF7F7" fill-rule="evenodd"/>
</symbol>
<symbol id="bd" viewBox="-0.006 -7.245 13.184 7.245">
			<linearGradient id="bf" x1="15494" x2="15500" y1="747.48" y2="747.48" gradientTransform="matrix(.0969 .9953 -.9953 .0969 -750.77 -15501)" gradientUnits="userSpaceOnUse">
			<stop stop-color="#fff" offset="0"/>
			<stop stop-color="#9AE0F5" stop-opacity=".6275" offset="1"/>
		</linearGradient>
		<path d="m9.2-2c2.167-1.233 3.45-2.217 3.85-2.95 0.567-1-0.75-1.7-3.95-2.1-3.167-0.367-5.75-0.217-7.75 0.45-0.867 0.267-1.317 0.533-1.35 0.8-0.067 0.333 0.4 0.683 1.4 1.05 0.367 0.133 1.533 0.35 3.5 0.65 1.267 0.2 1.934 0.55 2 1.05 0.033 0.233 0.033 0.617 0 1.15 0 0.3 0.083 0.583 0.25 0.85 0.5 0.7 1.083 1.05 1.75 1.05-0.233-0.167-0.383-0.383-0.45-0.65-0.2-0.5 0.05-0.95 0.75-1.35z" clip-rule="evenodd" fill="url(#bf)" fill-rule="evenodd"/>
</symbol>
<symbol id="be" viewBox="-0.046 -12.395 18.362 12.395">
		<linearGradient id="bg" x1="1.0625" x2="19.838" y1="-6.1973" y2="-6.1973" gradientUnits="userSpaceOnUse">
			<stop stop-color="#87CDFF" offset="0"/>
			<stop stop-color="#6ED6F5" offset="1"/>
		</linearGradient>
		<path d="m13.6-2.5c0.2 0.7 0.183 1.3-0.05 1.8l-0.4 0.7c0.934-0.767 1.4-1.567 1.4-2.4 0-0.5-0.066-0.9-0.2-1.2-0.233-0.367-0.417-0.667-0.55-0.9-0.233-0.4-0.216-0.917 0.05-1.55 0.3-0.667 0.783-1.05 1.45-1.15 0.567-0.1 1-0.1 1.3 0 0.2 0.067 0.383 0.184 0.55 0.35l0.3 0.2-0.2-0.7c-0.1-0.533-0.033-0.917 0.2-1.15 0.4-0.333 0.667-0.75 0.8-1.25 0.167-0.6 0.017-1.017-0.45-1.25-1.233-0.7-3.85-1.15-7.85-1.35-4.5-0.2-7.633 0.267-9.4 1.4-0.7 0.434-0.783 0.917-0.25 1.45 0.567 0.533 1.633 0.917 3.2 1.15 2.767 0.333 4.35 1.083 4.75 2.25 0.2 0.567 0.65 1.1 1.35 1.6 0.767 0.567 1.566 0.833 2.4 0.8 0.8-0.033 1.333 0.367 1.6 1.2z" clip-rule="evenodd" fill="url(#bg)" fill-rule="evenodd"/>
</symbol>
<symbol id="bl" viewBox="0.015 -15.946 24.384 15.946">
			<linearGradient id="bh" x1="215.99" x2="230.52" y1="-16525" y2="-16525" gradientTransform="matrix(-.0258 -.9997 .9997 -.0258 16538 -211.42)" gradientUnits="userSpaceOnUse">
			<stop stop-color="#54C0FF" offset="0"/>
			<stop stop-color="#0E93F0" offset="1"/>
		</linearGradient>
		<path d="m23.5-9.65c-0.633 0-1.1-0.317-1.4-0.95-0.367-0.733-0.017-1.483 1.05-2.25 1.167-0.833 1.333-1.483 0.5-1.95-0.733-0.4-2.35-0.7-4.85-0.9-2.633-0.267-5.85-0.316-9.65-0.15-3.867 0.167-6.483 0.467-7.85 0.9-1.133 0.367-1.517 0.817-1.15 1.35 0.333 0.467 1.1 0.85 2.3 1.15 2.133 0.5 3.617 1.1 4.45 1.8 0.3 0.233 0.567 0.75 0.8 1.55 0.233 0.767 0.466 1.25 0.7 1.45 0.467 0.433 1.133 0.733 2 0.9l-0.45-0.3c-0.2-0.133-0.317-0.35-0.35-0.65v-0.425l0.8 0.525c0.767 0.467 1.5 0.767 2.2 0.9 0.4 0.1 1.133 0.117 2.2 0.05 0.467 0 0.867 0.316 1.2 0.95 0.333 0.6 0.2 1.15-0.4 1.65l-1 0.55c-1.3 0.967-1.4 1.85-0.3 2.65 0.567 0.367 1.25 0.65 2.05 0.85-0.867-0.333-1.3-0.833-1.3-1.5 0-0.6 0.317-1.033 0.95-1.3 1.567-0.667 2.383-1.017 2.45-1.05 0.8-0.467 1.167-1.233 1.1-2.3 0-0.533-0.1-1.017-0.3-1.45l0.5 0.45c0.367 0.267 0.55 1.133 0.55 2.6 1.167-1.067 1.833-2.167 2-3.3 0.1-0.733-0.1-1.35-0.6-1.85l-0.8-0.55 1.15 0.55c0.733 0.367 1.517 0.383 2.35 0.05h-0.9z" clip-rule="evenodd" fill="url(#bh)" fill-rule="evenodd"/>
</symbol>
<use transform="matrix(1 0 0 -1 8.9502 41.7)" y="-3.85" width="14.6" height="3.85" enable-background="new" opacity=".4492" xlink:href="#bb"/>
<use transform="matrix(1 0 0 -1 8.9502 38.15)" y="-6.75" width="14.6" height="6.75" enable-background="new" opacity=".7383" xlink:href="#ba"/>
<use transform="matrix(1 0 0 -1 8.9502 38.75)" y="-6.15" width="14.6" height="6.15" enable-background="new" opacity=".2109" xlink:href="#az"/>
<use transform="matrix(1 0 0 -1 14.65 38.2)" x="0.009" y="-1.9" width="3.213" height="1.9" enable-background="new" opacity=".4219" xlink:href="#ay"/>
<use transform="matrix(1 0 0 -1 14.8 24.1)" y="-14.8" width="2.85" height="14.8" enable-background="new" opacity=".6914" xlink:href="#ax"/>
<path d="m17.7 24.25c-0.333 0.233-0.517 0.983-0.55 2.25v12.05c0 0.3-0.25 0.467-0.75 0.5v0.05h-0.15v-0.2l-0.05 0.2-0.15-0.05c-0.5-0.033-0.75-0.184-0.75-0.45v-12.1c-0.033-1.267-0.216-2.017-0.55-2.25l0.1-0.3 1.4 0.5 1.35-0.5 0.1 0.3zm-1.35 14.5c0.233-0.033 0.417-0.116 0.55-0.25-0.033-6.333-0.033-10.333 0-12 0-0.967 0.117-1.65 0.35-2.05l-1 0.35-1-0.35c0.2 0.466 0.3 1.15 0.3 2.05 0.034 1.667 0.034 5.667 0 12 0.133 0.134 0.317 0.217 0.55 0.25h0.25z" clip-rule="evenodd" fill="#B4CFE0" fill-rule="evenodd"/>
<path d="m16.2 24.65c0.5 0.033 0.867-0.017 1.1-0.15l-0.2 0.8-0.05 1.95-0.1-1c-0.034-0.433-0.15-0.75-0.35-0.95-0.233-0.167-0.483-0.183-0.75-0.05-0.2 0.133-0.333 0.4-0.4 0.8v0.175c-0.02-0.256-0.07-0.564-0.15-0.925l-0.2-0.75 1.1 0.1z" clip-rule="evenodd" fill="#B4CFE0" fill-rule="evenodd"/>
<use transform="matrix(1 0 0 -1 9.1001 40.6)" x="-0.026" y="-2.564" width="1.819" height="2.529" enable-background="new" opacity=".6211" xlink:href="#aw"/>
<use transform="matrix(1 0 0 -1 11.2 43.3)" x="-0.033" y="-0.506" width="0.68" height="0.506" enable-background="new" opacity=".6211" xlink:href="#av"/>
<use transform="matrix(1 0 0 -1 21.15 40.95)" y="-2.45" width="2.253" height="2.512" enable-background="new" opacity=".6211" xlink:href="#au"/>
<use transform="matrix(1 0 0 -1 .6001 9.2002)" y="-6.6" width="31.45" height="6.6" enable-background="new" opacity=".3906" xlink:href="#at"/>
<linearGradient id="bi" x1="-24.429" x2="-17.904" y1="16.227" y2="16.227" gradientTransform="matrix(.00015326 -1 1 -.001 2.2784e-5 6.0211e-5)" gradientUnits="userSpaceOnUse">
	<stop stop-color="#FFC83D" offset="0"/>
	<stop stop-color="#F73A00" offset="1"/>
</linearGradient>
<path d="m20.35 21.5c-0.3 0.233-0.633 0.483-1 0.75-0.7 0.567-1.133 0.967-1.3 1.2-0.133 0.167-0.3 0.433-0.5 0.8-0.233 0.267-0.583 0.417-1.05 0.45s-0.85-0.067-1.15-0.3c-0.1-0.066-0.35-0.316-0.75-0.75-0.8-0.867-1.9-1.783-3.3-2.75l-7-4.9h23.85l-7.8 5.5z" clip-rule="evenodd" fill="url(#bi)" fill-rule="evenodd"/>
<linearGradient id="bj" x1="-27.398" x2="-4.3188" y1="-17.798" y2="-17.798" gradientTransform="matrix(-.9825 .1863 -.1863 -.9825 .00010157 -.00026423)" gradientUnits="userSpaceOnUse">
	<stop stop-color="#FFC83D" offset="0"/>
	<stop stop-color="#F73A00" offset="1"/>
</linearGradient>
<path d="m29 15c0 0.767-1.233 1.433-3.7 2-2.5 0.533-5.5 0.8-9 0.8-3.533 0-6.533-0.267-9-0.8-2.5-0.567-3.75-1.233-3.75-2s1.25-1.417 3.75-1.95 5.5-0.8 9-0.8 6.5 0.267 9 0.8c2.467 0.533 3.7 1.183 3.7 1.95z" clip-rule="evenodd" fill="url(#bj)" fill-rule="evenodd"/>
<use transform="matrix(1 0 0 -1 5.8999 15.3)" y="-7.316" width="11.4" height="7.316" enable-background="new" opacity=".3594" xlink:href="#as"/>
<use transform="matrix(1 0 0 -1 17.8 15.35)" x="0.051" y="-6.059" width="8.549" height="6.059" enable-background="new" opacity=".3516" xlink:href="#ar"/>
<use transform="matrix(1 0 0 -1 .2002 12.95)" x="0.35" y="-11.752" width="31.3" height="11.502" enable-background="new" opacity=".2109" xlink:href="#aq"/>
<path d="m31.35 12.45c-0.1-0.867-1.616-1.6-4.55-2.2-2.933-0.6-6.45-0.9-10.55-0.9s-7.633 0.3-10.6 0.9c-2.933 0.6-4.433 1.333-4.5 2.2h-1.1c0.333-0.967 2.05-1.767 5.15-2.4 3.1-0.667 6.767-1 11-1 4.267 0 7.95 0.333 11.05 1 3.066 0.633 4.767 1.434 5.1 2.4h-1z" clip-rule="evenodd" fill="#B4CFE0" fill-rule="evenodd"/>
<use transform="matrix(1 0 0 -1 4.2998 0)" x="0.015" y="-15.946" width="24.384" height="15.946" enable-background="new" opacity=".6797" xlink:href="#bl"/>
<use transform="matrix(1 0 0 -1 6.5498 4.9502)" x="-0.046" y="-12.395" width="18.362" height="12.395" enable-background="new" opacity=".3984" xlink:href="#be"/>
<use transform="matrix(1 0 0 -1 10.45 8.7998)" x="-0.006" y="-7.245" width="13.184" height="7.245" enable-background="new" opacity=".7188" xlink:href="#bd"/>
<path d="m29.25 14.9l-1.15 0.4c-2.667 0.667-6.6 1.117-11.8 1.35h-1.65c-3.767-0.066-6.967-0.417-9.6-1.05-0.466-0.1-1.25-0.45-2.35-1.05 4.233 3.133 6.816 5 7.75 5.6 2.333 1.533 3.816 2.767 4.45 3.7 0.3 0.433 0.733 0.65 1.3 0.65h0.15c0.467 0 0.85-0.217 1.15-0.65 0.633-0.934 2.117-2.167 4.45-3.7 1.333-0.9 3.767-2.65 7.3-5.25zm-7.15 5.6c-2.233 1.467-3.684 2.65-4.35 3.55-0.4 0.567-0.867 0.85-1.4 0.85l-0.15-0.05-0.15 0.05c-0.533 0-1-0.283-1.4-0.85-0.633-0.9-2.083-2.083-4.35-3.55-1.733-1.167-5.133-3.633-10.2-7.4l-0.05-0.05v-0.3h0.15l0.7 0.35c2.033 1.233 3.434 1.933 4.2 2.1 2.967 0.7 6.15 1.05 9.55 1.05l1.65 0.05c5.233-0.233 9.15-0.7 11.75-1.4 0.934-0.233 2.2-0.883 3.8-1.95 0.167-0.133 0.284-0.2 0.351-0.2h0.149v0.3l-0.05 0.05c-5.067 3.767-8.467 6.233-10.2 7.4z" clip-rule="evenodd" fill="#B4CFE0" fill-rule="evenodd"/>
<path d="m31.35 12.45h1l0.101 0.3c0 1-1.584 1.867-4.75 2.6-3.2 0.7-7.034 1.05-11.5 1.05-4.467 0-8.284-0.35-11.45-1.05-3.168-0.733-4.751-1.6-4.751-2.6l0.05-0.3h1.1l-0.05 0.05c0 0.867 1.483 1.617 4.45 2.25 2.967 0.6 6.534 0.9 10.7 0.9s7.733-0.3 10.7-0.9c2.934-0.633 4.399-1.383 4.399-2.25v-0.05z" clip-rule="evenodd" fill="#B4CFE0" fill-rule="evenodd"/>
<path d="m16.2 32c0 3.6-0.067 5.4-0.2 5.4-0.1 0-0.15-1.801-0.15-5.4 0-3.634 0.05-5.45 0.15-5.45 0.133 0 0.2 1.816 0.2 5.45z" clip-rule="evenodd" fill="#DFF7F7" fill-rule="evenodd"/>
<use transform="matrix(1 0 0 -1 16.55 25.85)" y="-12.5" width="0.2" height="12.5" enable-background="new" opacity=".2891" xlink:href="#bc"/>
<path d="m9.7 40.15c-0.533 0.567-0.8 1.15-0.8 1.75 0 0.12 8e-3 0.229 0.025 0.324-0.247-0.852-0.122-1.527 0.375-2.024 0.7-0.667 1.883-1.217 3.55-1.65 0.867-0.233 1.65-0.399 2.35-0.5 0.1 0.167 0.1 0.25 0 0.25-0.467-0.1-1.367 0.066-2.7 0.5-1.433 0.433-2.367 0.884-2.8 1.35z" clip-rule="evenodd" fill="#B4CFE0" fill-rule="evenodd"/>
<path d="m17.45 38c0.333 0.033 0.917 0.167 1.75 0.4 1.718 0.452 2.876 0.96 3.475 1.524-0.26-0.184-0.818-0.441-1.675-0.774-0.733-0.301-1.6-0.551-2.6-0.75l-1.25-0.15v-0.2l0.3-0.05z" clip-rule="evenodd" fill="#B4CFE0" fill-rule="evenodd"/>
<use transform="matrix(1 0 0 -1 22.75 7.2998)" x="-0.026" y="-3.095" width="2.664" height="3.095" enable-background="new" opacity=".3984" xlink:href="#ap"/>
<use transform="matrix(1 0 0 -1 12.5 8.7998)" x="-0.044" y="-2.203" width="2.005" height="2.203" enable-background="new" opacity=".3984" xlink:href="#ao"/>
</svg>
